<?xml version="1.0" encoding="iso-8859-1"?>
<!-- Generator: Adobe Illustrator 19.0.0, SVG Export Plug-In . SVG Version: 6.00 Build 0)  -->
<svg version="1.1" id="Layer_1" xmlns="http://www.w3.org/2000/svg" xmlns:xlink="http://www.w3.org/1999/xlink" x="0px" y="0px"
	 viewBox="0 0 512 512" style="enable-background:new 0 0 512 512;" xml:space="preserve">
<g>
	<g>
		<path d="M264.574,4.675C262.697,1.761,259.467,0,256,0c-3.467,0-6.697,1.761-8.574,4.675
			c-6.532,10.14-159.966,249.362-159.966,338.784C87.459,436.393,163.066,512,256,512s168.541-75.607,168.541-168.541
			C424.541,254.037,271.106,14.815,264.574,4.675z M256,491.602c-81.686,0-148.142-66.456-148.142-148.143
			c0-34.037,26.926-101.269,77.865-194.427C213.83,97.626,242.219,51.324,256,29.29c13.77,22.016,42.123,68.259,70.223,119.64
			c50.976,93.212,77.92,160.478,77.92,194.529C404.142,425.146,337.686,491.602,256,491.602z"/>
	</g>
</g>
<g>
	<g>
		<path d="M375.907,332.939c-5.633,0-10.199,4.566-10.199,10.199c0,43.197-25.482,82.521-64.919,100.181
			c-5.141,2.301-7.442,8.335-5.14,13.476c1.695,3.788,5.416,6.034,9.314,6.034c1.393,0,2.809-0.287,4.163-0.893
			c46.764-20.941,76.981-67.572,76.981-118.797C386.106,337.505,381.54,332.939,375.907,332.939z"/>
	</g>
</g>
<g>
	<g>
		<path d="M281.818,460.702c-0.729-5.586-5.85-9.519-11.435-8.791c-4.736,0.619-9.574,0.933-14.383,0.933
			c-5.633,0-10.199,4.566-10.199,10.199c0,5.633,4.566,10.199,10.199,10.199c5.69,0,11.419-0.372,17.028-1.106
			C278.613,471.407,282.548,466.287,281.818,460.702z"/>
	</g>
</g>
</svg>
