<svg height="443pt" viewBox="0 0 443.06138 443" width="443pt" xmlns="http://www.w3.org/2000/svg"><path d="m431.328125 25.894531-14.136719-14.136719c-8.070312-8.078124-19.210937-12.320312-30.613281-11.6601558-11.402344.6601558-21.976563 6.1640628-29.058594 15.1249998l-117.023437 164.839844c-4.089844 5.761719-10.511719 9.425781-17.554688 10.019531-7.039062.59375-13.984375-1.945312-18.980468-6.941406l-34.234376-34.207031c-9.480468-9.109375-24.46875-9.109375-33.949218 0l-11.296875 11.304687 158.398437 158.398438 11.304688-11.304688c4.527344-4.488281 7.070312-10.597656 7.070312-16.96875 0-6.375-2.542968-12.484375-7.070312-16.972656l-34.222656-34.234375c-4.996094-4.996094-7.535157-11.941406-6.941407-18.980469.59375-7.042969 4.257813-13.464843 10.019531-17.554687l165-117.183594c8.890626-7.109375 14.332032-17.671875 14.960938-29.035156.628906-11.367188-3.617188-22.464844-11.671875-30.507813zm-24 43.808594c-9.375 9.371094-24.570313 9.371094-33.945313 0-9.371093-9.375-9.371093-24.574219 0-33.945313 9.496094-9.0625 24.441407-9.0625 33.9375 0 9.375 9.371094 9.378907 24.570313.007813 33.945313zm0 0"/><path d="m390.351562 44.734375c-3.234374 0-6.152343 1.949219-7.390624 4.9375-1.234376 2.988281-.550782 6.429687 1.734374 8.71875 3.160157 3.03125 8.148438 3.03125 11.304688 0 2.289062-2.289063 2.972656-5.730469 1.734375-8.71875s-4.15625-4.9375-7.390625-4.9375zm0 0"/><path d="m135.792969 420.429688 22.65625 22.65625 113.085937-113.167969-158.398437-158.402344-113.136719 113.121094 22.65625 22.65625 84.847656-84.855469c2.007813-2.078125 4.984375-2.914062 7.78125-2.183594 2.796875.734375 4.980469 2.917969 5.710938 5.714844.734375 2.796875-.101563 5.773438-2.179688 7.78125l-84.847656 84.855469 22.632812 22.625 50.902344-50.90625c3.140625-3.03125 8.128906-2.988281 11.214844.097656s3.128906 8.078125.097656 11.214844l-50.90625 50.921875 22.617188 22.621094 62.214844-62.222657c3.125-3.125 8.191406-3.128906 11.316406-.003906 3.128906 3.125 3.128906 8.191406.003906 11.316406l-62.222656 62.222657 22.625 22.625 73.535156-73.535157c3.140625-3.03125 8.128906-2.988281 11.214844.097657 3.085937 3.085937 3.128906 8.074218.097656 11.214843zm0 0"/></svg>