<?xml version="1.0" encoding="iso-8859-1"?>
<!-- Generator: Adobe Illustrator 19.1.0, SVG Export Plug-In . SVG Version: 6.00 Build 0)  -->
<svg version="1.1" id="Capa_1" xmlns="http://www.w3.org/2000/svg" xmlns:xlink="http://www.w3.org/1999/xlink" x="0px" y="0px"
	 viewBox="0 0 540.721 540.721" style="enable-background:new 0 0 540.721 540.721;" xml:space="preserve">
<g>
	<g>
		<path d="M521.858,465.271H18.862c-7.545,0-12.575,5.03-12.575,12.575v50.3c0,7.545,5.03,12.575,12.575,12.575h502.996
			c7.545,0,12.575-5.03,12.575-12.575v-50.3C534.433,470.301,529.403,465.271,521.858,465.271z"/>
		<path d="M227.606,98.084c5.03-5.03,20.12-12.575,30.18-12.575c7.545,0,12.575-5.03,12.575-12.575c0-7.545-5.03-10.06-12.575-10.06
			l0,0c-17.605,0-37.725,7.545-47.785,17.605c-12.575,10.06-22.635,27.665-22.635,47.785c0,7.545,5.03,10.06,12.575,10.06l0,0
			c7.545,0,12.575-2.515,12.575-10.06C212.516,118.204,220.061,103.114,227.606,98.084z"/>
		<path d="M18.862,440.121h502.996c5.03,0,7.545-2.515,10.06-5.03c2.515-2.515,2.515-7.545,0-12.575l-47.785-100.599
			c0-5.03-5.03-7.545-10.06-7.545H333.235v-77.964c25.15-20.12,60.359-60.36,60.359-110.659C393.594,55.33,338.265,0,270.36,0
			S147.126,57.845,147.126,125.749c-2.515,47.785,35.21,88.024,60.36,110.659v77.964H66.647c-5.03,0-10.06,2.515-10.06,7.545
			L8.802,422.517c-2.515,5.03-2.515,7.545,0,12.575C11.317,440.121,13.832,440.121,18.862,440.121z M169.761,125.749
			c0-55.33,45.27-100.599,98.084-100.599c52.815,0,98.084,45.27,98.084,100.599c0,37.725-27.665,75.449-55.33,93.054
			c-2.515,2.515-5.03,5.03-5.03,10.06v123.234c0,2.515-12.575,10.06-22.635,10.06h-37.725c-7.545,0-15.09-7.545-15.09-10.06V228.863
			c0-5.03-2.515-7.545-5.03-10.06C207.486,206.228,169.761,168.504,169.761,125.749z"/>
	</g>
</g>
</svg>
