<?xml version="1.0" encoding="utf-8"?>
<!-- Svg Vector Icons : http://www.onlinewebfonts.com/icon -->
<!DOCTYPE svg PUBLIC "-//W3C//DTD SVG 1.1//EN" "http://www.w3.org/Graphics/SVG/1.1/DTD/svg11.dtd">
<svg version="1.1" xmlns="http://www.w3.org/2000/svg" xmlns:xlink="http://www.w3.org/1999/xlink" x="0px" y="0px" viewBox="0 0 1000 1000" enable-background="new 0 0 1000 1000" xml:space="preserve">
<metadata> Svg Vector Icons : http://www.onlinewebfonts.com/icon </metadata>
<g><g transform="translate(0.000000,511.000000) scale(0.100000,-0.100000)"><path d="M2646.5,3789.8c-1040.2-119.8-2106-953.5-2445-1917.3l-91.8-260.1L102,355.5c-5.1-1081-2.5-1279.9,33.1-1415c155.5-609.4,578.8-986.7,1282.4-1139.7c300.9-66.3,670.5-96.9,1534.8-127.5c400.3-12.7,831.2-43.3,961.2-63.7c464-76.5,836.3-229.5,1448.1-599.2c698.6-420.7,1063.2-550.7,1682.7-599.2c234.6-17.9,645,20.4,866.9,81.6c494.6,132.6,1007.1,476.8,1341.1,902.6c318.7,405.4,484.4,749.6,589,1223.8c53.5,255,56.1,313.6,58.6,1527.2c0,1155-5.1,1274.8-45.9,1415c-186.1,596.6-609.4,917.9-1374.2,1045.3c-135.1,22.9-550.7,51-963.7,63.7c-1560.3,53.5-1828,112.2-2957.5,662.9c-685.8,334-928,415.6-1328.3,458.9C2944.8,3820.4,2919.3,3820.4,2646.5,3789.8z M3378.2,3165.2c255-51,461.5-135.1,1014.7-413c543.1-270.3,821-382.4,1213.6-487c311-84.2,798-155.5,1042.8-155.5c142.8,0,158.1-5.1,234.6-91.8c112.2-124.9,214.2-163.2,420.7-163.2c193.8,0,359.5,61.2,423.2,153c40.8,56.1,48.5,58.6,328.9,43.3c894.9-51,1249.3-328.9,1246.7-971.4c0-117.3-7.6-247.3-17.8-288.1c-30.6-147.9-94.3-331.4-168.3-494.6l-76.5-168.3l-158.1-12.7c-379.9-30.6-563.4-270.3-372.2-487l73.9-86.7l-81.6-76.5c-211.6-198.9-527.8-359.5-843.9-428.3c-160.6-35.7-272.8-43.3-560.9-30.6c-555.8,20.4-777.6,99.4-1494,525.2C5111.9-174.8,4857-52.4,4482.2,70c-410.5,137.7-685.8,175.9-1402.3,206.5c-1287.5,51-1596,86.7-1891.8,219.3c-191.2,84.1-379.9,288.1-443.6,471.7c-66.3,193.8-58.6,471.7,17.9,696l61.2,175.9l155.5,5.1c226.9,5.1,402.8,119.8,433.4,280.5c20.4,107.1,0,168.3-84.1,249.9l-66.3,66.3l61.2,66.3c249.9,267.7,808.2,571.1,1200.8,657.8C2745.9,3213.6,3143.6,3213.6,3378.2,3165.2z M3391-391.5c221.8-112.2,397.7-351.8,362-492.1c-51-211.6-418.1-183.6-657.8,51C2972.8-712.8,2921.8-610.8,2932-496c5.1,79.1,22.9,102,96.9,137.7C3130.9-307.4,3240.5-317.6,3391-391.5z M1328.3-414.5c140.2-86.7,221.8-209.1,221.8-323.8c0-216.7-392.6-153-573.7,91.8C792.9-394.1,1040.2-230.9,1328.3-414.5z M5550.4-1273.7c135.1-84.1,244.8-257.5,221.8-349.3c-23-89.2-145.3-132.6-267.7-96.9c-137.7,43.4-293.2,163.2-341.7,267.7c-56.1,117.3-53.5,160.6,10.2,224.4C5244.5-1156.4,5387.3-1174.2,5550.4-1273.7z M2682.2-1339.9c293.2-165.7,341.6-476.8,73.9-476.8c-196.3,0-466.6,232-466.6,397.8C2289.5-1278.7,2503.7-1238,2682.2-1339.9z M6659.5-2446.5c209-107.1,372.2-308.5,372.2-461.5c0-68.8-79-150.4-163.2-173.4c-168.3-40.8-517.6,158.1-617,351.8C6111.3-2459.2,6353.6-2290.9,6659.5-2446.5z"/><path d="M3013.6,2639.9c-135.1-45.9-221.8-130-221.8-219.3c0-160.6,181-270.3,453.8-270.3c418.1-2.5,599.2,288.1,280.5,453.8C3408.8,2665.4,3138.5,2683.3,3013.6,2639.9z"/><path d="M2213,1490.1c-168.3-48.5-295.8-132.6-334-226.9c-28-68.8-25.5-89.2,17.9-168.3c188.7-351.9,1106.5-288.1,1106.5,79c0,48.5-22.9,114.7-51,150.4C2837.7,1472.2,2450.2,1556.4,2213,1490.1z"/><path d="M5693.2,1492.6c-119.8-40.8-216.7-145.3-216.7-232c0-267.7,594-372.2,846.5-147.9c201.4,181-17.9,410.5-387.5,407.9C5843.6,1520.7,5736.6,1507.9,5693.2,1492.6z"/><path d="M8051.6,1278.5c-124.9-53.5-178.5-109.6-178.5-188.7c0-137.7,165.7-229.5,415.6-229.5c175.9,0,341.7,73.9,377.3,168.3C8737.4,1227.5,8321.8,1395.8,8051.6,1278.5z"/><path d="M4321.5,1013.3c-147.9-28-234.6-102-234.6-204c0-124.9,96.9-186.1,313.6-198.9c204-12.7,346.7,35.7,392.6,132.6C4869.7,916.4,4609.6,1064.3,4321.5,1013.3z"/><path d="M6662.1,225.5c-196.3-48.4-344.2-181-344.2-311c0-323.8,775.1-453.8,1070.8-175.9C7671.7,3.7,7161.8,345.3,6662.1,225.5z"/></g></g>
</svg>