<?xml version="1.0" encoding="iso-8859-1"?>
<!-- Generator: Adobe Illustrator 16.0.0, SVG Export Plug-In . SVG Version: 6.00 Build 0)  -->
<!DOCTYPE svg PUBLIC "-//W3C//DTD SVG 1.1//EN" "http://www.w3.org/Graphics/SVG/1.1/DTD/svg11.dtd">
<svg version="1.1" id="Capa_1" xmlns="http://www.w3.org/2000/svg" xmlns:xlink="http://www.w3.org/1999/xlink" x="0px" y="0px"
	 width="548.157px" height="548.157px" viewBox="0 0 548.157 548.157" style="enable-background:new 0 0 548.157 548.157;"
	 xml:space="preserve">
<g>
	<path d="M545.027,112.765c-3.046-6.471-7.57-11.657-13.565-15.555c-5.996-3.9-12.614-5.852-19.846-5.852H292.351
		c-11.04,0-20.175,4.184-27.408,12.56L9.13,396.279c-4.758,5.328-7.661,11.56-8.708,18.698c-1.049,7.139-0.144,13.941,2.712,20.417
		c3.044,6.468,7.564,11.652,13.561,15.553c5.997,3.898,12.612,5.853,19.845,5.853h219.268c11.042,0,20.177-4.179,27.41-12.56
		l255.813-292.363c4.75-5.33,7.655-11.561,8.699-18.699C548.788,126.039,547.877,119.238,545.027,112.765z M255.811,420.254H36.54
		l95.93-109.632h219.27L255.811,420.254z"/>
</g>
</svg>
