<?xml version="1.0" encoding="iso-8859-1"?>
<!-- Generator: Adobe Illustrator 19.0.0, SVG Export Plug-In . SVG Version: 6.00 Build 0)  -->
<svg version="1.1" id="Capa_1" xmlns="http://www.w3.org/2000/svg" xmlns:xlink="http://www.w3.org/1999/xlink" x="0px" y="0px"
	 viewBox="0 0 512 512" style="enable-background:new 0 0 512 512;" xml:space="preserve">
<g>
	<path d="M494.412,245.154L371.59,122.507l93.792-93.934L437.07,0.304L343.28,94.237l-56.613-56.532L37.714,286.659
		l207.754,207.459c11.699,11.699,27.069,17.549,42.436,17.549c15.367,0,30.735-5.849,42.436-17.549l164.082-164.082
		c11.389-11.388,17.632-26.53,17.578-42.635C511.946,271.446,505.704,256.446,494.412,245.154z M466.131,301.745L302.048,465.828
		c-7.799,7.8-20.489,7.8-28.3-0.01L94.314,286.638L286.687,94.266l28.324,28.283L211.272,226.445l28.312,28.269L343.322,150.82
		l122.811,122.636c3.761,3.761,5.842,8.761,5.859,14.079C472.009,292.902,469.928,297.948,466.131,301.745z"/>
</g>
<g>
	<path d="M95.137,398.966c-10.179-15.198-20.245-27.482-20.669-27.997l-15.455-18.808l-15.455,18.808
		c-0.424,0.516-10.49,12.799-20.669,27.997C2.372,429.596,0,444.293,0,452.684c0,32.54,26.474,59.012,59.012,59.012
		c32.539,0,59.012-26.473,59.012-59.012C118.025,444.293,115.652,429.596,95.137,398.966z M59.012,471.688
		c-10.479,0-19.004-8.525-19.005-18.956c0.004-0.08,0.526-8.271,16.291-31.757c0.907-1.35,1.813-2.678,2.714-3.972
		c0.899,1.294,1.806,2.622,2.714,3.972c15.491,23.079,16.265,31.388,16.29,31.745C77.996,463.182,69.48,471.688,59.012,471.688z"/>
</g>
</svg>
