<?xml version="1.0" encoding="utf-8"?>
<!-- Generator: Adobe Illustrator 19.0.0, SVG Export Plug-In . SVG Version: 6.00 Build 0)  -->
<svg version="1.1" id="Layer_1" xmlns="http://www.w3.org/2000/svg" xmlns:xlink="http://www.w3.org/1999/xlink" x="0px" y="0px"
	 viewBox="0 0 512 512" style="enable-background:new 0 0 512 512;" xml:space="preserve">
<g id="XMLID_1_">
	<path id="XMLID_12_" d="M128.4,96.2L64.2,32H32.6v31.6l64.2,64.2L128.4,96.2z M160,0.4h31.6v64.2H160V0.4z M287.5,160.4h64.2V192
		h-64.2V160.4z M320,64.6V33h-31.6l-64.2,64.2l31.6,31.6L320,64.6z M0,160.4h64.2V192H0V160.4z M160,287.9h31.6v64.2H160V287.9z
		 M31.6,287.9v31.6h31.6l64.2-64.2l-31.6-31.6L31.6,287.9z M504.2,441.4L187,123.2c-9.3-9.3-24.2-9.3-33.5,0L123.7,153
		c-9.3,9.3-9.3,24.2,0,33.5l318.2,318.2c9.3,9.3,24.2,9.3,33.5,0l29.8-29.8C514.4,465.5,514.4,450.7,504.2,441.4z M240,272
		l-95.8-95.8l31.6-31.6l95.8,95.8L240,272z"/>
</g>
</svg>
