<?xml version="1.0" encoding="iso-8859-1"?>
<!-- Generator: Adobe Illustrator 19.0.0, SVG Export Plug-In . SVG Version: 6.00 Build 0)  -->
<svg version="1.1" id="Capa_1" xmlns="http://www.w3.org/2000/svg" xmlns:xlink="http://www.w3.org/1999/xlink" x="0px" y="0px"
	 viewBox="0 0 511.997 511.997" style="enable-background:new 0 0 511.997 511.997;" xml:space="preserve">
<g>
	<g>
		<rect x="137.809" y="471.577" width="89.817" height="39.919"/>
	</g>
</g>
<g>
	<g>
		<rect x="283.463" y="471.577" width="89.817" height="39.919"/>
	</g>
</g>
<g>
	<g>
		<path d="M60.963,471.581c-11.579,0-21-9.421-21-21.001v-19.959H0.044v19.959c0,33.592,27.327,60.92,60.919,60.92h19.959v-39.919
			H60.963z"/>
	</g>
</g>
<g>
	<g>
		<path d="M471.083,430.621v19.959c0,11.58-9.42,21.001-21,21.001h-19.959V511.5h19.959c33.592,0,60.919-27.328,60.919-60.92
			v-19.959H471.083z"/>
	</g>
</g>
<g>
	<g>
		<rect x="137.809" y="0.497" width="89.817" height="39.919"/>
	</g>
</g>
<g>
	<g>
		<rect x="283.463" y="0.497" width="89.817" height="39.919"/>
	</g>
</g>
<g>
	<g>
		<path d="M60.963,0.497c-33.592,0-60.92,27.328-60.92,60.92v19.959h39.919h0.001V61.417c0-11.58,9.42-21.001,21-21.001h19.959
			V0.497H60.963z"/>
	</g>
</g>
<g>
	<g>
		<path d="M450.083,0.497h-19.959v39.919h19.959c11.579,0,21,9.421,21,21.001v19.959h39.919V61.417
			C511.002,27.825,483.675,0.497,450.083,0.497z"/>
	</g>
</g>
<g>
	<g>
		<rect y="288.909" width="39.919" height="89.817"/>
	</g>
</g>
<g>
	<g>
		<rect y="143.246" width="39.919" height="89.817"/>
	</g>
</g>
<g>
	<g>
		<rect x="472.078" y="288.909" width="39.919" height="89.817"/>
	</g>
</g>
<g>
	<g>
		<rect x="472.078" y="143.246" width="39.919" height="89.817"/>
	</g>
</g>
</svg>
