<?xml version="1.0" encoding="iso-8859-1"?>
<!-- Generator: Adobe Illustrator 19.0.0, SVG Export Plug-In . SVG Version: 6.00 Build 0)  -->
<svg version="1.1" id="Layer_1" xmlns="http://www.w3.org/2000/svg" xmlns:xlink="http://www.w3.org/1999/xlink" x="0px" y="0px"
	 viewBox="0 0 262.474 262.474" style="enable-background:new 0 0 262.474 262.474;" xml:space="preserve">
<g id="XMLID_351_">
	<path id="XMLID_352_" d="M217.327,210.541l-38.815-71.507l31.813-17.271c4.652-2.525,7.628-7.315,7.833-12.604
		c0.204-5.289-2.395-10.294-6.837-13.17L66.756,2.408c-4.609-2.984-10.481-3.211-15.308-0.591c-4.826,2.62-7.835,7.667-7.844,13.159
		l-0.277,172.206c-0.008,5.293,2.773,10.198,7.32,12.909c4.545,2.709,10.185,2.824,14.836,0.298l31.811-17.268l38.816,71.506
		c2.718,5.007,7.873,7.847,13.196,7.847c2.417,0,4.869-0.586,7.143-1.82l54.849-29.774
		C218.58,226.928,221.279,217.822,217.327,210.541z M155.321,227.132l-38.816-71.507c-1.898-3.496-5.107-6.095-8.922-7.225
		c-1.395-0.414-2.831-0.618-4.261-0.618c-2.478,0-4.94,0.614-7.157,1.817l-22.797,12.376L73.56,42.55l100.255,64.898l-22.799,12.377
		c-7.281,3.952-9.979,13.058-6.027,20.338l38.815,71.507L155.321,227.132z"/>
</g>
</svg>
