<svg xmlns="http://www.w3.org/2000/svg" viewBox="1 2 31 27" x="0px" y="0px">
	<title>shapes</title>
	<g>
		<path d="M30.87,16.33l-7.5-13a1,1,0,0,0-1.73,0l-5,8.69a8.15,8.15,0,0,0-1.61,0V7a1,1,0,0,0-1-1H2A1,1,0,0,0,1,7V19a1,1,0,0,0,1,1H8a8,8,0,1,0,15.69-2.17H30a1,1,0,0,0,.87-1.5ZM3,18V8H13v4.58l0,0A8,8,0,0,0,8.28,18H3Zm13,8a6,6,0,0,1-6-6,4.62,4.62,0,0,1,.07-.86,6,6,0,0,1,4.22-4.89A5.92,5.92,0,0,1,16,14a5.29,5.29,0,0,1,1,.09A6,6,0,0,1,16,26Zm6.83-10.17h0a8,8,0,0,0-4.12-3.34l0,0L22.5,5.84l5.77,10Z"/>
	</g>
</svg>