<?xml version="1.0" encoding="iso-8859-1"?>
<!-- Generator: Adobe Illustrator 19.0.0, SVG Export Plug-In . SVG Version: 6.00 Build 0)  -->
<svg version="1.1" id="Capa_1" xmlns="http://www.w3.org/2000/svg" xmlns:xlink="http://www.w3.org/1999/xlink" x="0px" y="0px"
	 viewBox="0 0 512 512" style="enable-background:new 0 0 512 512;" xml:space="preserve">
<g>
	<g>
		<path d="M508.867,190.394l-111-143.568C394.996,43.113,390.52,41,386,41H126c-4.498,0-8.98,2.092-11.867,5.825l-111,143.568
			c-4.509,5.832-4.112,14.076,0.937,19.447l241,256.432c2.655,2.824,6.568,4.728,10.93,4.728c4.3,0,8.221-1.845,10.93-4.728
			l241-256.432C512.979,204.469,513.376,196.226,508.867,190.394z M241,418.137L34.694,198.62l93.584-121.043L241,172.957V418.137z
			 M256,146.351L166.949,71h178.102L256,146.351z M271,418.137v-245.18l112.722-95.38l93.585,121.043L271,418.137z"/>
	</g>
</g>
</svg>
