<?xml version="1.0" encoding="iso-8859-1"?>
<!-- Generator: Adobe Illustrator 19.0.0, SVG Export Plug-In . SVG Version: 6.00 Build 0)  -->
<svg version="1.1" id="Capa_1" xmlns="http://www.w3.org/2000/svg" xmlns:xlink="http://www.w3.org/1999/xlink" x="0px" y="0px"
	 viewBox="0 0 461.312 461.312" style="enable-background:new 0 0 461.312 461.312;" xml:space="preserve">
<g>
	<g>
		<path d="M230.656,156.416c-40.96,0-74.24,33.28-74.24,74.24s33.28,74.24,74.24,74.24s74.24-33.28,74.24-74.24
			S271.616,156.416,230.656,156.416z M225.024,208.64c-9.216,0-16.896,7.68-16.896,16.896h-24.576
			c0.512-23.04,18.944-41.472,41.472-41.472V208.64z"/>
	</g>
</g>
<g>
	<g>
		<path d="M455.936,215.296c-25.088-31.232-114.688-133.12-225.28-133.12S30.464,184.064,5.376,215.296
			c-7.168,8.704-7.168,21.504,0,30.72c25.088,31.232,114.688,133.12,225.28,133.12s200.192-101.888,225.28-133.12
			C463.104,237.312,463.104,224.512,455.936,215.296z M230.656,338.176c-59.392,0-107.52-48.128-107.52-107.52
			s48.128-107.52,107.52-107.52s107.52,48.128,107.52,107.52S290.048,338.176,230.656,338.176z"/>
	</g>
</g>
</svg>
