<svg id="svg" version="1.1" xmlns="http://www.w3.org/2000/svg" xmlns:xlink="http://www.w3.org/1999/xlink" viewBox="9, -1, 389, 374">
	<g id="svgg">
		<path id="path0" d="M249.541 28.732 C 246.943 30.105,245.385 31.441,238.341 38.337 C 230.989 45.536,231.342 44.699,231.947 53.466 C 233.288 72.916,233.741 73.871,239.454 69.289 C 241.024 68.030,243.094 66.416,244.054 65.703 C 245.624 64.536,250.935 60.359,254.459 57.520 C 255.197 56.925,258.052 54.675,260.804 52.520 C 269.034 46.074,268.800 46.289,268.800 45.170 C 268.800 43.969,267.781 42.951,265.000 41.374 C 261.657 39.479,256.400 34.299,256.400 32.900 C 256.400 32.292,254.303 28.589,253.682 28.100 C 252.735 27.355,251.906 27.481,249.541 28.732 M289.335 48.210 C 286.897 49.857,283.689 53.305,283.355 54.638 C 282.312 58.794,296.215 73.216,301.252 73.202 C 302.622 73.198,306.490 71.059,308.580 69.149 C 312.323 65.728,312.125 64.696,307.278 62.346 C 303.761 60.641,302.439 59.661,299.255 56.400 C 297.250 54.346,295.936 52.389,295.282 50.482 C 293.956 46.619,292.509 46.066,289.335 48.210 M212.054 66.813 C 208.495 69.693,205.780 72.263,193.755 84.136 L 184.503 93.272 184.113 96.136 C 183.628 99.707,184.146 107.276,185.213 112.200 C 185.642 114.180,186.087 116.443,186.201 117.230 C 186.396 118.567,187.637 120.400,188.347 120.400 C 188.631 120.400,215.653 93.654,217.961 91.087 C 218.963 89.973,220.034 85.662,219.742 83.918 C 219.658 83.413,219.331 79.760,219.016 75.800 C 218.069 63.905,217.136 62.701,212.054 66.813 M257.600 71.284 C 253.949 73.554,243.271 83.802,240.900 87.311 C 238.986 90.144,240.379 92.633,248.672 101.202 C 258.686 111.548,259.244 111.647,267.071 104.433 C 274.664 97.435,279.600 91.301,279.600 88.862 C 279.600 88.399,278.729 87.804,276.900 87.018 C 275.415 86.380,273.771 85.529,273.246 85.129 C 272.721 84.728,272.129 84.400,271.929 84.400 C 270.391 84.400,264.000 77.844,264.000 76.266 C 264.000 75.954,263.748 75.489,263.439 75.233 C 263.131 74.977,262.763 74.307,262.622 73.743 C 261.858 70.701,260.001 69.791,257.600 71.284 M297.869 79.700 C 297.433 80.019,297.102 80.996,296.953 82.400 C 296.690 84.886,295.549 88.319,294.295 90.400 C 293.830 91.170,288.203 97.110,281.790 103.600 C 270.698 114.824,267.600 118.356,267.600 119.774 C 267.600 123.795,282.018 137.485,285.368 136.644 C 287.821 136.028,319.902 103.358,320.247 101.123 C 321.008 96.206,301.212 77.255,297.869 79.700 M339.000 93.603 C 338.120 94.226,336.688 95.471,335.818 96.369 L 334.237 98.001 334.266 102.731 C 334.291 106.677,334.432 107.721,335.113 109.030 C 335.563 109.894,336.407 111.614,336.989 112.852 C 338.411 115.878,342.238 118.800,344.779 118.800 C 345.216 118.800,346.189 119.094,346.942 119.453 C 348.208 120.057,348.455 120.057,350.227 119.453 C 351.280 119.094,352.544 118.800,353.034 118.800 C 354.341 118.800,357.892 116.844,359.022 115.501 C 360.755 113.441,360.555 113.062,355.400 108.629 C 349.742 103.764,347.482 101.129,344.397 95.800 C 342.271 92.128,341.516 91.820,339.000 93.603 M224.736 104.866 C 223.561 105.783,221.160 107.812,219.400 109.375 C 217.640 110.938,214.628 113.525,212.706 115.123 C 205.252 121.324,192.652 133.923,192.005 135.823 C 191.189 138.221,195.611 144.917,201.977 150.923 C 207.037 155.696,208.907 156.003,213.241 152.770 C 217.102 149.889,242.779 123.942,243.917 121.771 C 245.141 119.436,242.263 114.852,235.593 108.511 C 229.510 102.729,228.087 102.252,224.736 104.866 M163.444 114.254 C 159.177 117.384,144.921 132.348,144.138 134.519 C 142.336 139.514,141.970 152.410,143.471 158.000 C 144.861 163.177,146.685 162.221,158.836 149.950 C 169.194 139.489,168.600 140.959,168.600 125.800 C 168.600 112.132,168.042 110.882,163.444 114.254 M251.827 131.067 C 249.751 132.191,245.096 135.832,241.400 139.223 C 227.794 151.704,217.600 162.159,217.600 163.629 C 217.600 164.515,219.250 167.734,220.699 169.674 C 227.287 178.493,234.495 186.000,236.376 186.000 C 237.843 186.000,243.725 180.899,254.401 170.370 C 256.998 167.808,267.460 156.715,270.134 153.687 C 273.537 149.832,272.489 147.640,262.426 137.571 C 255.896 131.036,254.015 129.882,251.827 131.067 M308.400 134.408 C 306.530 136.157,304.879 137.590,304.731 137.594 C 304.225 137.605,297.498 145.397,296.881 146.686 C 295.629 149.301,298.126 152.815,306.210 159.816 C 310.415 163.457,311.213 164.000,312.359 164.000 C 315.799 164.000,327.485 151.995,328.979 146.927 C 329.247 146.020,326.947 144.000,325.646 144.000 C 322.842 144.000,318.329 140.176,316.400 136.165 C 313.478 130.090,313.106 130.008,308.400 134.408 M346.547 144.900 C 343.326 148.035,339.145 152.490,337.255 154.800 C 335.366 157.110,333.718 159.090,333.593 159.200 C 330.892 161.579,326.779 168.810,327.578 169.774 C 329.221 171.753,335.907 172.044,347.881 170.656 C 354.073 169.938,353.701 170.131,360.400 164.166 C 371.605 154.190,371.878 153.586,366.973 149.578 C 365.336 148.241,361.973 145.360,359.499 143.176 C 353.357 137.755,353.972 137.673,346.547 144.900 M124.338 153.429 C 115.691 161.003,86.451 189.963,60.353 216.800 C 52.544 224.830,44.228 233.380,41.874 235.800 C 36.172 241.659,36.000 242.170,36.000 253.268 C 36.000 266.733,37.470 267.856,45.632 260.624 C 51.929 255.044,56.870 250.340,68.761 238.600 C 76.115 231.340,82.417 225.120,82.766 224.777 C 84.519 223.054,118.923 187.933,123.040 183.664 C 129.190 177.286,130.852 170.849,129.252 159.600 C 128.030 151.008,127.649 150.529,124.338 153.429 M172.736 154.859 C 169.833 157.115,150.805 176.375,150.369 177.500 C 149.658 179.334,152.923 183.925,159.360 190.143 C 165.854 196.415,165.568 196.407,171.899 190.500 C 192.360 171.409,192.639 171.138,192.986 170.043 C 193.452 168.577,190.091 163.748,186.036 160.057 C 185.466 159.538,184.370 158.537,183.600 157.832 C 177.841 152.563,176.252 152.128,172.736 154.859 M279.200 166.045 C 271.481 172.117,252.472 190.238,249.108 194.731 L 247.216 197.258 248.207 199.213 C 250.239 203.224,260.115 212.400,262.400 212.400 C 264.364 212.400,274.417 203.642,287.622 190.427 C 300.071 177.968,300.139 177.820,295.612 173.000 C 287.683 164.558,283.398 162.742,279.200 166.045 M201.163 179.066 C 200.414 179.683,199.710 180.284,199.600 180.402 C 199.490 180.521,198.320 181.511,197.000 182.604 C 195.680 183.696,193.160 185.857,191.400 187.406 C 189.640 188.955,187.174 191.078,185.920 192.125 C 182.457 195.015,174.797 203.136,174.314 204.429 C 173.913 205.501,176.160 209.663,178.617 212.400 C 185.770 220.367,192.776 226.695,195.680 227.809 C 197.158 228.376,207.071 220.274,212.694 213.903 C 213.909 212.526,216.020 210.230,217.386 208.800 C 223.974 201.901,224.634 200.641,222.860 198.354 C 222.453 197.829,222.048 197.186,221.960 196.925 C 221.280 194.901,209.173 181.666,206.086 179.571 C 203.532 177.838,202.754 177.758,201.163 179.066 M310.747 184.275 C 309.843 184.897,304.384 189.406,301.200 192.160 C 295.956 196.696,293.997 198.372,292.800 199.347 C 292.030 199.975,288.992 202.763,286.049 205.544 C 283.106 208.325,280.568 210.690,280.410 210.800 C 279.164 211.664,275.200 216.737,275.200 217.466 C 275.200 218.775,276.583 218.925,289.023 218.965 L 299.846 219.000 302.023 217.218 C 303.220 216.238,304.493 215.158,304.850 214.818 C 306.389 213.355,308.778 211.239,311.200 209.197 C 315.403 205.652,317.359 203.822,326.756 194.641 C 329.940 191.530,331.987 189.229,331.913 188.845 C 331.757 188.034,328.491 186.472,325.939 185.988 C 324.861 185.784,323.627 185.428,323.197 185.198 C 322.389 184.766,318.392 184.127,314.200 183.760 C 312.295 183.594,311.583 183.700,310.747 184.275 M125.734 199.900 C 122.498 202.925,118.669 206.464,117.225 207.764 C 115.781 209.065,112.983 211.675,111.007 213.564 C 109.031 215.454,105.521 218.811,103.207 221.025 C 100.893 223.239,96.570 227.280,93.600 230.004 C 87.466 235.630,84.341 238.568,77.212 245.409 C 70.802 251.559,64.950 257.147,59.400 262.418 C 53.435 268.083,47.630 273.691,41.355 279.851 L 36.111 285.000 35.627 289.200 C 35.236 292.595,35.252 294.971,35.709 301.600 C 36.341 310.763,36.791 312.400,38.676 312.400 C 39.733 312.400,39.998 312.180,47.800 304.803 C 51.167 301.620,54.993 298.110,59.795 293.800 C 61.756 292.040,65.079 288.967,67.180 286.972 C 69.281 284.976,73.250 281.301,76.000 278.805 C 80.586 274.643,89.242 266.658,90.764 265.185 C 91.114 264.847,93.193 262.957,95.384 260.985 C 99.354 257.413,104.329 252.646,119.178 238.182 C 123.480 233.992,131.725 226.008,137.500 220.441 C 143.275 214.874,148.000 210.262,148.000 210.193 C 148.000 207.813,137.161 196.007,134.425 195.406 C 133.756 195.259,133.106 194.972,132.981 194.769 C 132.439 193.892,131.290 194.706,125.734 199.900 M230.315 214.300 C 226.997 216.370,225.026 217.998,218.019 224.458 C 211.007 230.923,206.400 236.315,206.400 238.059 C 206.400 241.413,216.097 252.008,220.079 253.005 C 222.099 253.510,232.001 244.230,245.621 229.065 C 248.524 225.833,247.555 222.984,241.607 217.262 C 235.805 211.682,234.895 211.443,230.315 214.300 M259.441 231.459 C 256.985 232.180,249.168 239.379,242.598 246.972 C 241.279 248.496,239.694 250.296,239.075 250.972 C 238.456 251.647,237.300 253.352,236.506 254.761 L 235.063 257.322 235.960 258.048 C 236.453 258.448,237.519 258.874,238.329 258.995 C 239.138 259.116,241.701 259.572,244.024 260.008 C 253.062 261.703,255.347 261.101,261.174 255.487 C 275.432 241.751,280.383 236.205,280.396 233.954 C 280.407 232.177,263.751 230.193,259.441 231.459 M185.527 255.900 C 183.276 258.045,180.975 260.250,180.414 260.800 C 179.853 261.350,175.075 265.931,169.797 270.980 C 150.100 289.820,139.620 300.080,124.122 315.696 C 106.077 333.879,107.386 332.532,104.194 336.220 C 100.170 340.870,99.116 342.734,100.091 343.473 C 101.961 344.892,105.781 345.384,114.994 345.390 L 124.200 345.397 126.000 343.656 C 126.990 342.698,130.410 339.360,133.600 336.238 C 138.122 331.811,154.287 316.296,158.018 312.800 C 158.370 312.470,163.865 307.146,170.229 300.969 C 181.537 289.995,185.353 286.322,198.000 274.239 C 204.401 268.124,205.092 267.218,204.661 265.501 C 203.722 261.758,193.405 252.000,190.387 252.000 C 189.964 252.000,187.788 253.746,185.527 255.900 M220.000 271.401 C 219.230 271.706,218.266 271.965,217.858 271.977 C 216.918 272.006,215.956 272.816,208.600 279.769 C 205.300 282.889,201.241 286.692,199.580 288.220 C 194.687 292.724,187.134 299.721,186.001 300.800 C 185.423 301.350,182.447 304.140,179.387 307.000 C 162.852 322.452,147.370 337.727,145.202 340.729 C 142.477 344.501,144.331 345.399,154.816 345.384 C 164.943 345.370,164.595 345.570,178.788 331.611 C 179.565 330.847,184.610 326.092,190.000 321.043 C 199.574 312.076,230.099 282.644,237.087 275.642 C 239.528 273.196,239.342 272.364,236.200 271.668 C 232.653 270.883,221.766 270.703,220.000 271.401 " stroke="none" fill="#d6d7d6" fill-rule="evenodd">
		</path>
		<path id="path1" d="M248.800 0.775 C 248.030 1.210,247.085 1.685,246.700 1.830 C 246.315 1.975,246.000 2.250,246.000 2.441 C 246.000 2.633,245.367 3.054,244.594 3.377 C 243.821 3.700,243.082 4.242,242.952 4.582 C 242.821 4.922,242.528 5.200,242.300 5.200 C 242.072 5.200,239.517 7.630,236.622 10.600 C 233.124 14.188,231.072 16.000,230.507 16.000 C 230.040 16.000,229.371 16.286,229.022 16.635 C 228.513 17.144,227.889 17.218,225.893 17.006 C 214.254 15.774,207.577 17.353,206.518 21.589 C 206.378 22.145,205.936 23.140,205.534 23.800 C 205.130 24.463,204.802 25.761,204.801 26.700 L 204.800 28.400 131.700 28.400 C 59.575 28.400,58.572 28.411,56.496 29.200 C 55.338 29.640,54.055 30.000,53.645 30.000 C 53.234 30.000,52.686 30.256,52.426 30.569 C 52.166 30.882,51.199 31.261,50.277 31.412 C 49.355 31.563,48.330 31.917,48.000 32.199 C 47.670 32.481,46.803 32.838,46.073 32.993 C 45.343 33.148,44.655 33.512,44.544 33.802 C 44.433 34.091,43.918 34.434,43.399 34.565 C 42.880 34.695,42.213 35.026,41.917 35.301 C 40.915 36.230,38.989 37.486,38.167 37.747 C 37.717 37.890,36.683 38.617,35.868 39.363 C 35.054 40.109,34.121 40.822,33.794 40.947 C 33.467 41.072,33.200 41.356,33.200 41.577 C 33.200 41.798,32.649 42.264,31.975 42.613 C 30.627 43.310,24.000 49.837,24.000 50.468 C 24.000 50.685,23.325 51.540,22.500 52.368 C 20.888 53.986,19.200 56.183,19.200 56.662 C 19.200 56.971,17.184 60.053,16.755 60.400 C 16.619 60.510,16.368 61.050,16.197 61.600 C 16.025 62.150,15.551 62.835,15.143 63.123 C 14.734 63.410,14.400 64.061,14.400 64.569 C 14.400 65.077,14.066 65.921,13.658 66.446 C 13.250 66.971,12.785 68.111,12.625 68.980 C 12.465 69.848,12.079 70.923,11.767 71.369 C 11.455 71.814,11.200 72.554,11.200 73.014 C 11.200 73.474,10.840 74.595,10.400 75.506 C 9.137 78.119,9.137 322.123,10.400 324.600 C 10.840 325.463,11.200 326.649,11.200 327.236 C 11.200 327.822,11.456 328.514,11.769 328.774 C 12.082 329.034,12.465 330.001,12.620 330.923 C 12.775 331.845,13.239 333.029,13.651 333.554 C 14.063 334.079,14.400 334.912,14.400 335.405 C 14.400 335.898,14.673 336.528,15.006 336.805 C 15.339 337.082,16.074 338.229,16.639 339.354 C 17.204 340.479,18.011 341.722,18.433 342.116 C 18.855 342.509,19.200 343.144,19.200 343.527 C 19.200 343.909,19.515 344.526,19.900 344.897 C 21.170 346.121,21.895 346.963,24.676 350.443 C 27.034 353.393,31.472 357.600,32.226 357.600 C 32.356 357.600,33.154 358.275,33.998 359.100 C 36.544 361.588,37.631 362.400,38.414 362.400 C 38.824 362.400,39.304 362.625,39.480 362.900 C 39.930 363.604,42.039 365.031,43.147 365.383 C 43.660 365.546,44.421 366.021,44.839 366.439 C 45.258 366.858,45.991 367.200,46.469 367.200 C 46.946 367.200,47.652 367.485,48.037 367.834 C 48.423 368.183,49.487 368.568,50.403 368.691 C 51.320 368.814,52.161 369.154,52.273 369.446 C 52.385 369.739,53.135 370.085,53.939 370.216 C 54.742 370.347,56.114 370.757,56.987 371.127 C 59.441 372.168,334.159 372.168,336.613 371.127 C 337.486 370.757,338.857 370.347,339.660 370.216 C 340.463 370.086,341.324 369.733,341.573 369.433 C 341.822 369.133,342.815 368.769,343.780 368.624 C 344.745 368.479,345.751 368.100,346.016 367.780 C 346.281 367.461,346.926 367.200,347.449 367.200 C 347.972 367.200,348.717 366.885,349.105 366.500 C 349.494 366.115,350.259 365.568,350.805 365.284 C 352.910 364.193,353.801 363.614,354.193 363.083 C 354.417 362.780,355.052 362.420,355.604 362.283 C 356.156 362.145,357.326 361.374,358.204 360.569 C 360.240 358.703,361.562 357.604,362.983 356.600 C 363.606 356.160,364.399 355.485,364.747 355.100 C 365.094 354.715,365.596 354.400,365.862 354.400 C 366.128 354.400,366.460 354.040,366.600 353.600 C 366.740 353.160,367.012 352.800,367.206 352.800 C 367.399 352.800,368.193 351.855,368.971 350.700 C 369.749 349.545,371.378 347.520,372.592 346.200 C 373.806 344.880,374.799 343.544,374.800 343.231 C 374.800 342.919,375.099 342.333,375.464 341.929 C 376.134 341.189,376.736 340.234,377.684 338.405 C 377.968 337.859,378.515 337.094,378.900 336.705 C 379.285 336.317,379.600 335.609,379.600 335.131 C 379.600 334.654,379.885 333.948,380.234 333.563 C 380.583 333.177,380.970 332.101,381.095 331.170 C 381.220 330.240,381.654 329.146,382.061 328.739 C 382.467 328.333,382.800 327.541,382.800 326.980 C 382.800 326.419,383.115 325.384,383.500 324.680 C 384.159 323.476,384.206 318.971,384.305 248.652 L 384.410 173.904 386.505 171.783 C 391.088 167.142,393.600 163.632,393.600 161.869 C 393.600 161.569,393.960 160.998,394.400 160.600 C 394.863 160.181,395.200 159.368,395.200 158.670 C 395.200 158.006,395.514 157.116,395.897 156.693 C 397.380 155.055,397.327 138.487,395.833 136.837 C 395.485 136.452,395.200 135.752,395.200 135.280 C 395.200 134.355,392.878 129.486,392.332 129.267 C 392.149 129.193,391.996 128.833,391.991 128.467 C 391.986 128.100,391.630 127.350,391.200 126.800 C 390.770 126.250,390.414 125.525,390.409 125.189 C 390.404 124.853,390.040 124.270,389.600 123.893 C 389.160 123.516,388.800 122.868,388.800 122.453 C 388.800 122.038,388.548 121.489,388.239 121.233 C 387.931 120.977,387.557 120.280,387.408 119.684 C 387.259 119.088,386.853 118.284,386.505 117.898 C 385.963 117.297,385.838 115.142,385.630 102.898 C 385.457 92.691,385.246 88.350,384.894 87.726 C 384.586 87.182,384.393 85.147,384.382 82.326 C 384.371 79.257,384.167 77.285,383.751 76.200 C 383.414 75.320,382.989 73.891,382.808 73.024 C 382.628 72.157,382.221 71.257,381.904 71.024 C 381.588 70.791,381.222 69.796,381.091 68.814 C 380.960 67.832,380.571 66.822,380.227 66.570 C 379.882 66.318,379.600 65.663,379.600 65.114 C 379.600 64.566,379.150 63.631,378.600 63.038 C 378.050 62.444,377.600 61.786,377.600 61.575 C 377.600 61.364,376.970 60.295,376.200 59.200 C 375.430 58.105,374.800 56.938,374.800 56.607 C 374.800 56.277,374.440 55.782,374.000 55.507 C 373.560 55.232,373.200 54.813,373.200 54.576 C 373.200 54.339,372.795 53.792,372.300 53.361 C 371.805 52.931,370.156 51.008,368.635 49.089 C 367.115 47.170,365.760 45.600,365.625 45.600 C 365.489 45.600,364.833 45.105,364.167 44.500 C 363.501 43.895,362.278 42.887,361.451 42.259 C 360.623 41.632,359.193 40.410,358.273 39.545 C 357.353 38.680,356.105 37.866,355.500 37.736 C 354.895 37.606,354.400 37.374,354.400 37.221 C 354.400 36.869,351.478 34.942,350.447 34.615 C 350.022 34.480,349.579 34.123,349.464 33.822 C 349.349 33.522,348.660 33.145,347.933 32.985 C 347.206 32.826,346.249 32.469,345.806 32.192 C 345.363 31.916,344.343 31.575,343.540 31.434 C 342.737 31.294,341.879 30.936,341.633 30.639 C 341.386 30.343,340.449 29.982,339.550 29.838 C 338.652 29.695,337.404 29.312,336.778 28.989 C 336.022 28.598,334.424 28.400,332.023 28.400 C 328.363 28.400,326.000 27.237,326.000 25.436 C 326.000 24.472,319.973 18.109,317.800 16.779 C 316.304 15.863,315.695 15.780,308.400 15.498 C 287.916 14.706,287.902 14.705,286.800 13.579 C 284.925 11.663,282.400 8.490,282.400 8.048 C 282.400 7.805,282.040 7.382,281.600 7.107 C 281.160 6.832,280.800 6.447,280.800 6.251 C 280.800 6.055,280.177 5.333,279.415 4.647 C 277.314 2.755,277.023 2.536,275.699 1.851 C 275.024 1.502,274.396 0.988,274.303 0.708 C 273.977 -0.272,250.542 -0.211,248.800 0.775 M253.682 28.100 C 254.303 28.589,256.400 32.292,256.400 32.900 C 256.400 34.299,261.657 39.479,265.000 41.374 C 267.781 42.951,268.800 43.969,268.800 45.170 C 268.800 46.289,269.034 46.074,260.804 52.520 C 258.052 54.675,255.197 56.925,254.459 57.520 C 250.935 60.359,245.624 64.536,244.054 65.703 C 243.094 66.416,241.024 68.030,239.454 69.289 C 233.741 73.871,233.288 72.916,231.947 53.466 C 231.342 44.699,230.989 45.536,238.341 38.337 C 248.121 28.762,251.586 26.450,253.682 28.100 M293.987 47.982 C 294.450 48.633,295.033 49.758,295.282 50.482 C 295.936 52.389,297.250 54.346,299.255 56.400 C 302.439 59.661,303.761 60.641,307.278 62.346 C 312.125 64.696,312.323 65.728,308.580 69.149 C 302.660 74.559,298.763 74.078,291.486 67.042 C 283.413 59.236,281.951 55.520,285.430 51.651 C 289.359 47.281,292.522 45.925,293.987 47.982 M188.617 59.979 C 187.398 61.507,186.400 62.876,186.400 63.021 C 186.400 63.166,185.946 63.824,185.391 64.484 L 184.382 65.683 174.291 65.760 C 164.263 65.837,164.188 65.844,162.226 66.878 C 159.979 68.063,156.401 71.437,156.397 72.374 C 156.396 72.718,156.037 73.540,155.600 74.200 C 154.939 75.198,154.805 76.081,154.803 79.451 C 154.801 82.678,154.670 83.610,154.159 84.034 C 153.440 84.631,153.608 87.669,154.374 87.925 C 154.627 88.009,154.795 89.310,154.788 91.133 L 154.776 94.200 152.688 96.462 C 151.540 97.706,150.240 99.221,149.800 99.827 C 149.360 100.434,147.103 102.872,144.785 105.246 L 140.571 109.562 129.727 109.681 C 120.063 109.787,118.798 109.876,118.110 110.500 C 117.668 110.900,116.706 111.200,115.863 111.200 C 113.817 111.200,111.667 113.190,111.325 115.400 C 111.189 116.280,110.745 117.429,110.339 117.954 C 109.662 118.828,109.600 119.821,109.600 129.854 C 109.600 135.874,109.452 140.800,109.272 140.800 C 109.092 140.800,108.327 141.343,107.572 142.007 C 103.098 145.941,101.228 147.644,99.124 149.700 C 97.829 150.965,96.711 152.000,96.639 152.000 C 96.567 152.000,94.815 153.665,92.746 155.700 C 90.677 157.735,87.819 160.390,86.395 161.600 C 84.972 162.810,83.229 164.340,82.523 165.000 C 76.881 170.271,72.751 174.165,70.645 176.200 C 69.279 177.520,67.005 179.590,65.592 180.800 C 64.179 182.010,62.238 183.765,61.280 184.700 C 60.321 185.635,59.473 186.400,59.394 186.400 C 59.315 186.400,57.445 188.155,55.238 190.300 C 53.030 192.445,50.679 194.648,50.012 195.196 C 49.345 195.743,48.800 196.418,48.800 196.696 C 48.800 196.973,48.596 197.200,48.346 197.200 C 48.096 197.200,47.499 197.605,47.020 198.100 C 46.540 198.595,45.279 199.720,44.216 200.600 C 43.153 201.480,41.472 202.965,40.478 203.900 C 39.485 204.835,38.494 205.600,38.276 205.600 C 36.987 205.600,38.468 87.514,39.782 85.466 C 40.088 84.990,40.462 83.745,40.614 82.700 C 40.766 81.655,41.036 80.800,41.214 80.800 C 41.392 80.800,41.759 80.130,42.029 79.311 C 42.300 78.492,42.764 77.579,43.060 77.282 C 43.357 76.986,43.600 76.513,43.600 76.233 C 43.600 75.952,43.915 75.346,44.300 74.885 C 44.685 74.425,45.630 73.275,46.400 72.330 C 48.386 69.892,51.346 66.805,51.700 66.802 C 51.864 66.801,52.733 66.088,53.630 65.217 C 54.527 64.347,55.607 63.525,56.030 63.390 C 56.454 63.256,56.800 62.978,56.800 62.773 C 56.800 62.568,57.158 62.400,57.597 62.400 C 58.035 62.400,58.618 62.040,58.893 61.600 C 59.168 61.160,59.771 60.800,60.234 60.800 C 60.697 60.800,61.402 60.440,61.800 60.000 C 62.270 59.480,63.032 59.200,63.973 59.200 C 64.770 59.200,65.867 58.885,66.411 58.500 C 67.334 57.847,70.345 57.786,111.600 57.592 C 135.910 57.478,163.683 57.343,173.317 57.292 L 190.834 57.200 188.617 59.979 M217.542 66.500 C 218.253 68.158,218.563 70.116,219.016 75.800 C 219.331 79.760,219.658 83.413,219.742 83.918 C 220.034 85.662,218.963 89.973,217.961 91.087 C 215.653 93.654,188.631 120.400,188.347 120.400 C 187.637 120.400,186.396 118.567,186.201 117.230 C 186.087 116.443,185.642 114.180,185.213 112.200 C 184.146 107.276,183.628 99.707,184.113 96.136 L 184.503 93.272 193.755 84.136 C 214.714 63.441,215.864 62.588,217.542 66.500 M261.507 71.560 C 261.979 72.198,262.480 73.180,262.622 73.743 C 262.763 74.307,263.131 74.977,263.439 75.233 C 263.748 75.489,264.000 75.954,264.000 76.266 C 264.000 77.844,270.391 84.400,271.929 84.400 C 272.129 84.400,272.721 84.728,273.246 85.129 C 273.771 85.529,275.415 86.380,276.900 87.018 C 278.729 87.804,279.600 88.399,279.600 88.862 C 279.600 91.301,274.664 97.435,267.071 104.433 C 259.244 111.647,258.686 111.548,248.672 101.202 C 237.784 89.952,237.788 90.008,247.060 80.567 C 256.366 71.091,259.648 69.045,261.507 71.560 M300.656 79.621 C 305.976 81.644,320.752 97.861,320.247 101.123 C 319.902 103.358,287.821 136.028,285.368 136.644 C 282.018 137.485,267.600 123.795,267.600 119.774 C 267.600 118.356,270.698 114.824,281.790 103.600 C 288.203 97.110,293.830 91.170,294.295 90.400 C 295.549 88.319,296.690 84.886,296.953 82.400 C 297.267 79.431,298.238 78.702,300.656 79.621 M342.666 93.300 C 343.108 93.795,343.887 94.920,344.397 95.800 C 347.482 101.129,349.742 103.764,355.400 108.629 C 360.555 113.062,360.755 113.441,359.022 115.501 C 357.892 116.844,354.341 118.800,353.034 118.800 C 352.544 118.800,351.280 119.094,350.227 119.453 C 348.455 120.057,348.208 120.057,346.942 119.453 C 346.189 119.094,345.216 118.800,344.779 118.800 C 342.238 118.800,338.411 115.878,336.989 112.852 C 336.407 111.614,335.563 109.894,335.113 109.030 C 334.432 107.721,334.291 106.677,334.266 102.731 L 334.237 98.001 335.818 96.369 C 339.356 92.718,341.347 91.826,342.666 93.300 M230.777 104.419 C 235.472 107.600,243.679 116.765,244.168 119.373 C 244.557 121.444,244.183 121.945,235.681 130.757 C 219.172 147.869,212.749 153.827,209.739 154.820 C 205.273 156.294,190.444 140.409,192.005 135.823 C 192.652 133.923,205.252 121.324,212.706 115.123 C 214.628 113.525,217.640 110.938,219.400 109.375 C 226.927 102.689,227.717 102.345,230.777 104.419 M167.890 114.100 C 168.987 116.108,168.946 134.968,167.836 138.916 C 166.556 143.468,148.936 160.806,145.442 160.952 C 142.296 161.082,141.365 142.207,144.138 134.519 C 144.921 132.348,159.177 117.384,163.444 114.254 C 165.927 112.434,166.960 112.398,167.890 114.100 M255.831 131.671 C 258.309 133.270,266.261 141.199,269.526 145.326 C 272.768 149.422,272.854 150.607,270.134 153.687 C 267.460 156.715,256.998 167.808,254.401 170.370 C 243.725 180.899,237.843 186.000,236.376 186.000 C 234.495 186.000,227.287 178.493,220.699 169.674 C 219.250 167.734,217.600 164.515,217.600 163.629 C 217.600 161.709,239.844 139.766,247.827 133.811 C 252.964 129.979,253.138 129.932,255.831 131.671 M314.308 132.300 C 314.727 132.905,315.669 134.644,316.400 136.165 C 318.329 140.176,322.842 144.000,325.646 144.000 C 326.947 144.000,329.247 146.020,328.979 146.927 C 327.485 151.995,315.799 164.000,312.359 164.000 C 311.213 164.000,310.415 163.457,306.210 159.816 C 298.126 152.815,295.629 149.301,296.881 146.686 C 297.498 145.397,304.225 137.605,304.731 137.594 C 304.879 137.590,306.530 136.157,308.400 134.408 C 312.137 130.914,313.107 130.568,314.308 132.300 M359.499 143.176 C 361.973 145.360,365.336 148.241,366.973 149.578 C 371.878 153.586,371.605 154.190,360.400 164.166 C 353.701 170.131,354.073 169.938,347.881 170.656 C 335.907 172.044,329.221 171.753,327.578 169.774 C 326.779 168.810,330.892 161.579,333.593 159.200 C 333.718 159.090,335.366 157.110,337.255 154.800 C 339.145 152.490,343.326 148.035,346.547 144.900 C 353.972 137.673,353.357 137.755,359.499 143.176 M128.313 154.204 C 131.377 168.520,129.949 176.499,123.040 183.664 C 118.923 187.933,84.519 223.054,82.766 224.777 C 82.417 225.120,76.115 231.340,68.761 238.600 C 56.870 250.340,51.929 255.044,45.632 260.624 C 37.470 267.856,36.000 266.733,36.000 253.268 C 36.000 242.170,36.172 241.659,41.874 235.800 C 44.228 233.380,52.544 224.830,60.353 216.800 C 78.046 198.606,108.688 167.952,116.400 160.732 C 127.654 150.195,127.476 150.293,128.313 154.204 M180.064 154.876 C 181.239 155.797,182.830 157.128,183.600 157.832 C 184.370 158.537,185.466 159.538,186.036 160.057 C 188.104 161.939,191.700 166.229,192.461 167.719 C 193.740 170.227,194.145 169.683,183.768 179.401 C 168.293 193.895,166.833 195.200,166.091 195.200 C 163.707 195.200,152.270 183.604,150.409 179.300 C 149.739 177.751,150.440 176.881,160.659 166.559 C 175.233 151.839,175.777 151.512,180.064 154.876 M288.226 166.613 C 291.412 168.949,293.516 170.768,295.612 173.000 C 300.139 177.820,300.071 177.968,287.622 190.427 C 274.417 203.642,264.364 212.400,262.400 212.400 C 260.115 212.400,250.239 203.224,248.207 199.213 L 247.216 197.258 249.108 194.731 C 252.472 190.238,271.481 172.117,279.200 166.045 C 282.692 163.298,283.802 163.368,288.226 166.613 M206.086 179.571 C 209.173 181.666,221.280 194.901,221.960 196.925 C 222.048 197.186,222.453 197.829,222.860 198.354 C 224.634 200.641,223.974 201.901,217.386 208.800 C 216.020 210.230,213.909 212.526,212.694 213.903 C 207.071 220.274,197.158 228.376,195.680 227.809 C 192.776 226.695,185.770 220.367,178.617 212.400 C 176.160 209.663,173.913 205.501,174.314 204.429 C 174.797 203.136,182.457 195.015,185.920 192.125 C 187.174 191.078,189.640 188.955,191.400 187.406 C 193.160 185.857,195.680 183.696,197.000 182.604 C 198.320 181.511,199.490 180.521,199.600 180.402 C 202.026 177.790,203.233 177.635,206.086 179.571 M319.508 184.375 C 321.107 184.598,322.767 184.968,323.197 185.198 C 323.627 185.428,324.861 185.784,325.939 185.988 C 328.491 186.472,331.757 188.034,331.913 188.845 C 331.987 189.229,329.940 191.530,326.756 194.641 C 317.359 203.822,315.403 205.652,311.200 209.197 C 308.778 211.239,306.389 213.355,304.850 214.818 C 304.493 215.158,303.220 216.238,302.023 217.218 L 299.846 219.000 289.023 218.965 C 276.583 218.925,275.200 218.775,275.200 217.466 C 275.200 216.737,279.164 211.664,280.410 210.800 C 280.568 210.690,283.106 208.325,286.049 205.544 C 288.992 202.763,292.030 199.975,292.800 199.347 C 293.997 198.372,295.956 196.696,301.200 192.160 C 304.384 189.406,309.843 184.897,310.747 184.275 C 311.873 183.501,313.345 183.517,319.508 184.375 M132.981 194.769 C 133.106 194.972,133.756 195.259,134.425 195.406 C 137.161 196.007,148.000 207.813,148.000 210.193 C 148.000 210.262,143.275 214.874,137.500 220.441 C 131.725 226.008,123.480 233.992,119.178 238.182 C 104.329 252.646,99.354 257.413,95.384 260.985 C 93.193 262.957,91.114 264.847,90.764 265.185 C 89.242 266.658,80.586 274.643,76.000 278.805 C 73.250 281.301,69.281 284.976,67.180 286.972 C 65.079 288.967,61.756 292.040,59.795 293.800 C 54.993 298.110,51.167 301.620,47.800 304.803 C 39.998 312.180,39.733 312.400,38.676 312.400 C 36.791 312.400,36.341 310.763,35.709 301.600 C 35.252 294.971,35.236 292.595,35.627 289.200 L 36.111 285.000 41.355 279.851 C 47.630 273.691,53.435 268.083,59.400 262.418 C 64.950 257.147,70.802 251.559,77.212 245.409 C 84.341 238.568,87.466 235.630,93.600 230.004 C 96.570 227.280,100.893 223.239,103.207 221.025 C 105.521 218.811,109.031 215.454,111.007 213.564 C 112.983 211.675,115.781 209.065,117.225 207.764 C 118.669 206.464,122.498 202.925,125.734 199.900 C 131.290 194.706,132.439 193.892,132.981 194.769 M355.446 253.900 C 355.272 307.776,355.138 313.040,353.900 314.789 C 353.503 315.349,353.200 316.501,353.200 317.446 C 353.200 318.510,352.996 319.193,352.638 319.330 C 352.328 319.449,351.955 320.096,351.807 320.768 C 351.659 321.441,351.357 322.103,351.136 322.239 C 350.915 322.376,350.405 323.254,350.004 324.190 C 349.603 325.127,348.493 326.710,347.537 327.708 C 346.582 328.706,345.093 330.350,344.228 331.361 C 343.364 332.373,342.485 333.200,342.276 333.200 C 342.066 333.200,341.315 333.814,340.607 334.565 C 339.899 335.315,338.377 336.423,337.224 337.025 C 336.072 337.628,335.035 338.364,334.921 338.661 C 334.808 338.957,334.398 339.200,334.011 339.200 C 333.624 339.200,332.850 339.560,332.291 340.000 C 331.703 340.463,330.668 340.800,329.837 340.800 C 328.880 340.800,328.099 341.101,327.500 341.700 L 326.600 342.600 264.610 342.722 L 202.619 342.844 204.310 341.283 C 205.239 340.425,206.000 339.515,206.000 339.261 C 206.000 339.008,206.208 338.800,206.462 338.800 C 206.717 338.800,207.590 338.125,208.403 337.300 C 209.216 336.475,211.119 334.720,212.631 333.400 C 216.030 330.432,219.324 327.354,224.510 322.300 C 226.712 320.155,228.558 318.400,228.613 318.400 C 228.669 318.400,230.133 317.005,231.867 315.300 C 234.574 312.638,237.320 310.099,243.000 305.008 C 243.660 304.417,246.945 301.294,250.300 298.068 L 256.400 292.203 266.100 292.312 C 275.823 292.422,278.454 292.178,279.330 291.083 C 279.589 290.760,280.259 290.390,280.820 290.260 C 281.424 290.121,282.124 289.490,282.536 288.712 C 282.919 287.991,283.493 286.950,283.811 286.400 C 284.183 285.755,284.390 284.245,284.394 282.149 C 284.398 279.753,284.558 278.767,285.000 278.400 C 285.787 277.747,285.787 273.377,285.000 272.000 C 283.659 269.653,284.001 269.054,290.069 263.132 C 293.187 260.090,295.875 257.600,296.042 257.600 C 296.209 257.600,296.460 257.240,296.600 256.800 C 296.740 256.360,297.012 256.000,297.205 256.000 C 297.398 256.000,298.485 255.055,299.622 253.900 L 301.688 251.800 311.603 251.600 C 320.308 251.424,321.612 251.315,322.290 250.700 C 322.715 250.315,323.244 250.000,323.465 250.000 C 323.969 250.000,326.400 247.008,326.400 246.387 C 326.400 246.133,326.760 245.469,327.200 244.909 C 327.849 244.084,328.000 243.286,328.000 240.678 C 328.000 238.178,328.156 237.291,328.700 236.688 C 329.547 235.750,329.624 229.590,328.813 227.632 C 328.279 226.342,330.579 223.770,339.212 216.000 C 340.801 214.570,342.813 212.725,343.683 211.900 C 344.553 211.075,345.336 210.400,345.423 210.400 C 345.509 210.400,346.957 209.050,348.639 207.400 C 350.322 205.750,351.811 204.398,351.949 204.396 C 352.087 204.394,352.830 203.676,353.600 202.800 C 354.370 201.924,355.139 201.206,355.309 201.204 C 355.478 201.202,355.540 224.915,355.446 253.900 M237.864 213.962 C 246.724 221.113,248.921 225.390,245.621 229.065 C 232.001 244.230,222.099 253.510,220.079 253.005 C 216.097 252.008,206.400 241.413,206.400 238.059 C 206.400 236.315,211.007 230.923,218.019 224.458 C 231.081 212.416,234.021 210.861,237.864 213.962 M277.737 232.408 C 281.962 233.835,281.002 235.815,271.472 245.336 C 254.487 262.303,254.948 262.057,244.024 260.008 C 241.701 259.572,239.138 259.116,238.329 258.995 C 237.519 258.874,236.453 258.448,235.960 258.048 L 235.063 257.322 236.506 254.761 C 237.300 253.352,238.456 251.647,239.075 250.972 C 239.694 250.296,241.279 248.496,242.598 246.972 C 249.168 239.379,256.985 232.180,259.441 231.459 C 261.630 230.816,275.091 231.515,277.737 232.408 M192.677 252.872 C 196.974 255.330,203.955 262.688,204.661 265.501 C 205.092 267.218,204.401 268.124,198.000 274.239 C 185.353 286.322,181.537 289.995,170.229 300.969 C 163.865 307.146,158.370 312.470,158.018 312.800 C 154.287 316.296,138.122 331.811,133.600 336.238 C 130.410 339.360,126.990 342.698,126.000 343.656 L 124.200 345.397 114.994 345.390 C 105.781 345.384,101.961 344.892,100.091 343.473 C 99.116 342.734,100.170 340.870,104.194 336.220 C 107.386 332.532,106.077 333.879,124.122 315.696 C 139.620 300.080,150.100 289.820,169.797 270.980 C 175.075 265.931,179.853 261.350,180.414 260.800 C 189.794 251.603,190.107 251.400,192.677 252.872 M236.200 271.668 C 239.342 272.364,239.528 273.196,237.087 275.642 C 230.099 282.644,199.574 312.076,190.000 321.043 C 184.610 326.092,179.565 330.847,178.788 331.611 C 164.595 345.570,164.943 345.370,154.816 345.384 C 144.331 345.399,142.477 344.501,145.202 340.729 C 147.370 337.727,162.852 322.452,179.387 307.000 C 182.447 304.140,185.423 301.350,186.001 300.800 C 187.134 299.721,194.687 292.724,199.580 288.220 C 201.241 286.692,205.300 282.889,208.600 279.769 C 215.956 272.816,216.918 272.006,217.858 271.977 C 218.266 271.965,219.230 271.706,220.000 271.401 C 221.766 270.703,232.653 270.883,236.200 271.668 " stroke="none" fill="#040404" fill-rule="evenodd">
		</path>
	</g>
</svg>
